<svg width="771" height="512" viewBox="0 0 771 512" fill="none" xmlns="http://www.w3.org/2000/svg">
<path d="M381.717 412.563C332.867 412.563 285.528 398.02 247.767 371.411C210.005 344.803 184.157 307.775 174.627 266.638C165.097 225.501 172.475 182.799 195.502 145.808C218.53 108.818 255.784 79.827 300.915 63.7761C346.047 47.7251 396.264 45.607 443.011 57.7825C489.757 69.958 530.141 95.6739 557.281 130.548C584.42 165.423 596.637 207.298 591.849 249.04C587.06 290.781 565.564 329.805 531.022 359.464C511.46 376.351 488.192 389.74 462.564 398.854C436.936 407.969 409.457 412.629 381.717 412.563V412.563ZM381.717 51.1561C266.048 51.1561 171.945 131.954 171.945 231.269C171.945 330.584 266.048 411.382 381.717 411.382C497.386 411.382 591.49 330.584 591.49 231.269C591.49 131.954 497.386 51.1561 381.717 51.1561Z" fill="#3F3D56"/>
<path d="M399.503 392.544C395.592 404.955 382.2 412.641 382.2 412.641C382.2 412.641 375.146 400.206 379.056 387.795C382.966 375.385 396.359 367.699 396.359 367.699C396.359 367.699 403.413 380.134 399.503 392.544Z" fill="#21BF73"/>
<path d="M363.932 392.544C367.842 404.955 381.235 412.641 381.235 412.641C381.235 412.641 388.288 400.206 384.378 387.795C380.468 375.385 367.075 367.699 367.075 367.699C367.075 367.699 360.022 380.134 363.932 392.544Z" fill="#21BF73"/>
<path d="M369.677 389.877C380.407 398.845 381.717 412.63 381.717 412.63C381.717 412.63 365.632 411.876 354.903 402.909C344.174 393.941 342.863 380.155 342.863 380.155C342.863 380.155 358.948 380.909 369.677 389.877Z" fill="#3F3D56"/>
<path d="M393.757 389.877C383.028 398.845 381.717 412.63 381.717 412.63C381.717 412.63 397.802 411.876 408.532 402.909C419.261 393.941 420.571 380.155 420.571 380.155C420.571 380.155 404.486 380.909 393.757 389.877Z" fill="#3F3D56"/>
<path d="M363.932 70.6779C367.842 58.2675 381.235 50.5815 381.235 50.5815C381.235 50.5815 388.288 63.0166 384.378 75.4269C380.468 87.8373 367.075 95.5233 367.075 95.5233C367.075 95.5233 360.022 83.0882 363.932 70.6779Z" fill="#21BF73"/>
<path d="M399.503 70.6779C395.592 58.2675 382.2 50.5815 382.2 50.5815C382.2 50.5815 375.146 63.0166 379.056 75.4269C382.966 87.8373 396.359 95.5233 396.359 95.5233C396.359 95.5233 403.413 83.0882 399.503 70.6779Z" fill="#21BF73"/>
<path d="M393.757 73.345C383.028 64.3772 381.717 50.5916 381.717 50.5916C381.717 50.5916 397.802 51.3457 408.532 60.3135C419.261 69.2813 420.571 83.0669 420.571 83.0669C420.571 83.0669 404.486 82.3128 393.757 73.345Z" fill="#3F3D56"/>
<path d="M369.677 73.345C380.407 64.3772 381.717 50.5916 381.717 50.5916C381.717 50.5916 365.632 51.3457 354.903 60.3135C344.174 69.2813 342.863 83.0669 342.863 83.0669C342.863 83.0669 358.948 82.3128 369.677 73.345Z" fill="#3F3D56"/>
<path d="M283.422 7.4861H10.0608V246.161H283.422V7.4861Z" fill="#185ADB"/>
<path d="M273.093 13.5439H29.5766H15.7742V26.2416V237.02H29.5766V26.2416H273.093V13.5439Z" fill="#3F3D56"/>
<path opacity="0.3" d="M273.093 13.5439H29.5766H15.7742V26.2416V237.02H29.5766V26.2416H273.093V13.5439Z" fill="black"/>
<path opacity="0.1" d="M233.657 26.2416H222.812H29.5765V56.7156H222.812V237.02H273.093V26.2416H233.657Z" fill="black"/>
<path d="M0 0V250.564H288.867V0H0ZM273.093 237.02H15.7743V13.544H273.093V237.02Z" fill="#3F3D56"/>
<path d="M202.723 259.802C202.723 259.802 215.785 281.532 223.132 286.438C230.48 291.345 211.295 297.303 211.295 297.303L188.844 267.162L202.723 259.802Z" fill="#A0616A"/>
<path d="M123.533 206.88C123.533 206.88 184.354 220.548 189.661 229.661C194.967 238.773 211.295 260.853 211.295 260.853L187.211 277.326L163.536 246.834L98.2255 221.6L123.533 206.88Z" fill="#2F2E41"/>
<path d="M209.254 288.541C209.254 288.541 203.539 284.335 201.906 287.139C200.274 289.943 195.375 304.313 195.375 304.313C195.375 304.313 202.315 309.92 216.601 306.416C216.601 306.416 220.275 303.962 225.99 306.416C231.704 308.869 252.93 303.962 252.114 295.901C251.298 287.84 229.663 288.541 229.663 288.541C229.663 288.541 220.551 279.776 219.393 283.107C218.234 286.438 219.867 286.789 219.867 286.789C219.867 286.789 212.519 293.448 209.254 288.541Z" fill="#2F2E41"/>
<path d="M139.453 281.181L135.371 310.621H155.372C155.372 310.621 153.74 287.84 154.148 285.036C154.556 282.233 139.453 281.181 139.453 281.181Z" fill="#A0616A"/>
<path d="M150.882 216.343C150.882 216.343 161.903 230.362 155.372 231.413C148.841 232.465 143.535 216.343 143.535 216.343H150.882Z" fill="#A0616A"/>
<path d="M67.6111 214.941C67.6111 214.941 59.4473 235.619 91.6945 241.227C123.942 246.834 133.738 251.39 133.738 251.39L137.82 287.139L165.985 288.541C165.985 288.541 179.456 234.217 161.903 227.207C144.351 220.198 107.206 212.137 107.206 212.137L67.6111 214.941Z" fill="#2F2E41"/>
<path d="M137.82 306.065C137.82 306.065 143.535 303.612 144.351 303.612C144.351 303.612 147.939 296.506 154.513 297.255L168.843 315.178C168.843 315.178 190.477 328.496 175.374 332.001C160.271 335.505 148.433 332.701 148.433 332.701L142.31 328.846C142.31 328.846 143.127 324.991 137.82 325.692C137.82 325.692 126.799 321.837 127.207 319.033C127.615 316.229 136.286 304.024 136.286 304.024L137.82 306.065Z" fill="#2F2E41"/>
<path d="M141.29 146.773C150.307 146.773 157.617 140.496 157.617 132.753C157.617 125.011 150.307 118.734 141.29 118.734C132.272 118.734 124.962 125.011 124.962 132.753C124.962 140.496 132.272 146.773 141.29 146.773Z" fill="#A0616A"/>
<path d="M128.024 128.372C128.024 128.372 113.329 137.485 110.471 137.835C107.614 138.186 123.942 155.359 123.942 155.359C123.942 155.359 131.697 144.494 136.596 143.093C141.494 141.691 128.024 128.372 128.024 128.372Z" fill="#A0616A"/>
<path d="M117.002 139.938C117.002 139.938 110.88 132.929 107.206 132.929C103.532 132.929 70.4685 136.083 67.6111 159.565C64.7538 183.047 66.3866 224.053 66.3866 224.053C66.3866 224.053 63.9374 213.889 91.2863 218.095C91.2863 218.095 123.942 212.137 129.656 212.137C135.371 212.137 137.82 162.018 137.82 162.018L128.526 149.646C128.526 149.646 124.35 156.411 117.002 139.938Z" fill="#D0CDE1"/>
<path d="M131.697 159.215L137.82 162.018L145.168 200.571L155.372 220.548C155.372 220.548 144.351 217.291 143.535 221.198L127.207 200.922L131.697 159.215Z" fill="#D0CDE1"/>
<path d="M137.619 121.256L146.502 122.209C146.332 123.761 146.379 125.684 147.981 126.418C148.734 126.763 149.689 126.745 150.356 127.202C151.961 128.301 150.391 130.664 151.298 132.245L153.896 132.835C154.208 133.337 154.632 133.78 155.145 134.14C155.657 134.5 156.247 134.77 156.882 134.933C157.516 135.096 158.181 135.15 158.84 135.092C159.499 135.033 160.137 134.864 160.719 134.593C162.465 133.693 163.355 131.973 164.14 130.36C165.078 128.433 166.036 126.362 165.566 124.313C165.062 122.111 162.967 120.281 162.871 118.038C162.829 117.035 163.076 115.784 162.091 115.244C161.637 115.061 161.15 114.949 160.65 114.915C158.381 114.508 157.117 112.492 155.425 111.131C151.879 108.281 146.432 108.355 141.583 108.604C140.194 108.608 138.817 108.815 137.509 109.214C136.03 109.85 134.723 110.746 133.671 111.841C131.07 114.223 128.538 116.718 126.823 119.631C125.107 122.545 124.262 125.949 125.194 129.114C125.102 128.81 128.189 126.817 128.573 126.498C129.78 125.494 129.889 125.015 130.542 123.861C132.064 121.171 134.18 120.887 137.619 121.256Z" fill="#2F2E41"/>
<path opacity="0.1" d="M111.492 166.399L112.717 190.933L130.873 209.215L114.349 188.83L111.492 166.399Z" fill="black"/>
<path opacity="0.1" d="M78.8367 173.059L93.1232 201.447L111.492 214.415L91.8983 202.849L78.8367 173.059Z" fill="black"/>
<path d="M156.44 196.069L165.073 201.167C165.503 201.458 165.803 201.867 165.923 202.326C166.043 202.784 165.976 203.264 165.732 203.685L164.578 205.731L164.845 205.889L163.533 208.213L163.266 208.055L153.757 224.903C153.659 225.125 153.503 225.324 153.302 225.487C153.102 225.65 152.861 225.772 152.598 225.844C152.335 225.916 152.056 225.937 151.783 225.904C151.509 225.871 151.248 225.786 151.018 225.654L142.905 220.863C142.411 220.529 142.066 220.058 141.928 219.531C141.79 219.004 141.867 218.452 142.147 217.968L154.153 196.696C154.235 196.511 154.365 196.344 154.532 196.208C154.7 196.072 154.901 195.97 155.121 195.91C155.341 195.85 155.573 195.833 155.802 195.86C156.03 195.888 156.248 195.959 156.44 196.069Z" fill="#3F3D56"/>
<path d="M143.042 217.782L152.333 223.269L164.453 201.793L155.162 196.306L143.042 217.782Z" fill="white"/>
<path d="M139.007 213.054C139.007 213.054 155.199 222.688 149.556 225.701C143.914 228.714 132.16 215.342 132.16 215.342L139.007 213.054Z" fill="#A0616A"/>
<path d="M90.8781 141.691C90.8781 141.691 69.6521 146.948 75.7749 163.07C77.2519 166.959 79.0377 171.133 80.8973 175.229C86.7469 188.113 93.3272 200.221 93.3272 200.221L111.777 214.544L136.596 220.548L139.453 218.445C139.453 218.445 140.269 211.786 136.596 211.085C132.922 210.384 127.207 207.581 127.207 207.581L112.512 189.005C112.512 189.005 112.104 142.742 90.8781 141.691Z" fill="#D0CDE1"/>
<path d="M494.326 417.75H761.179V184.759L494.326 184.759L494.326 417.75Z" fill="#FFC947"/>
<path d="M504.409 190.672H742.127H755.601V203.068V408.828H742.127V203.068H504.409V190.672Z" fill="#3F3D56"/>
<path opacity="0.3" d="M504.409 190.672H742.127H755.601V203.068V408.828H742.127V203.068H504.409V190.672Z" fill="black"/>
<path opacity="0.1" d="M542.906 203.068H553.493H742.127V232.816H553.493V408.828H504.409V203.068H542.906Z" fill="black"/>
<path d="M489.011 177.451V422.049H771V177.451H489.011ZM504.409 190.672H755.601V408.828H504.409V190.672Z" fill="#3F3D56"/>
<path d="M653.785 292.769C647.713 283.959 635.699 283.549 635.699 283.549C635.699 283.549 623.993 282.264 616.483 295.681C609.484 308.186 599.823 320.261 614.928 323.189L617.656 315.897L619.346 323.731C621.497 323.864 623.654 323.896 625.809 323.826C641.985 323.378 657.39 323.957 656.894 318.974C656.234 312.348 659.628 301.246 653.785 292.769Z" fill="#2F2E41"/>
<path d="M610.018 363.87L608.74 383.614L646.213 386.904L647.491 366.429L634.715 359.483L610.018 363.87Z" fill="#A0616A"/>
<path d="M710.726 407.196C709.602 397.869 664.989 393.635 654.267 392.751L650.258 390.743L648.981 379.043C648.981 379.043 609.379 376.118 606.398 375.753C603.417 375.387 600.862 380.14 600.862 381.237C600.862 382.03 600.305 387.691 598.068 391.046C593.236 394.38 578.506 404.868 578.506 408.842C578.506 413.595 590.216 473.374 590.216 473.374L591.494 485.805L603.417 487.633L602.565 448.877C602.565 448.877 606.824 426.574 600.862 420.359V417.799C600.862 417.799 618.348 413.888 624.51 409.629C626.296 409.3 631.314 408.488 634.086 409.194C634.466 409.386 634.904 409.583 635.391 409.784C635.453 409.832 635.512 409.884 635.567 409.938L635.615 409.875C643.587 413.079 664.038 417.12 672.401 415.971C678.852 415.126 685.447 416.155 691.138 418.896C686.454 424.015 689.86 438.64 689.86 438.64L690.286 470.083L696.248 476.299H704.339V459.115C704.339 459.115 712.004 417.799 710.726 407.196Z" fill="#2F2E41"/>
<path d="M631.948 316.888C639.709 316.888 646 311.486 646 304.822C646 298.158 639.709 292.757 631.948 292.757C624.187 292.757 617.895 298.158 617.895 304.822C617.895 311.486 624.187 316.888 631.948 316.888Z" fill="#A0616A"/>
<path d="M623.431 312.5C623.431 312.5 625.56 320.544 622.579 321.275C620.221 321.946 617.941 322.803 615.766 323.834L612.36 333.341V342.847L653.665 346.869L654.943 343.578V338.825L650.258 331.513L648.129 329.684C648.129 329.684 638.761 320.909 640.89 312.5H623.431Z" fill="#A0616A"/>
<path d="M660.265 341.567C660.265 341.567 661.543 354.364 660.265 360.214C658.988 366.064 659.414 374.839 659.414 374.839L650.045 373.376V353.633L652.175 343.03L660.265 341.567Z" fill="#A0616A"/>
<path d="M637.17 291.052C641.967 291.052 645.856 287.713 645.856 283.594C645.856 279.474 641.967 276.135 637.17 276.135C632.372 276.135 628.483 279.474 628.483 283.594C628.483 287.713 632.372 291.052 637.17 291.052Z" fill="#2F2E41"/>
<path d="M627.569 281.631C627.569 279.789 628.363 278.012 629.798 276.643C631.233 275.273 633.208 274.408 635.341 274.214C635.037 274.187 634.732 274.173 634.427 274.173C632.123 274.173 629.913 274.958 628.284 276.357C626.655 277.756 625.74 279.653 625.74 281.631C625.74 283.609 626.655 285.506 628.284 286.905C629.913 288.303 632.123 289.089 634.427 289.089C634.732 289.089 635.037 289.075 635.341 289.047C633.208 288.853 631.233 287.988 629.798 286.619C628.363 285.25 627.569 283.473 627.569 281.631V281.631Z" fill="#2F2E41"/>
<path d="M651.1 291.92L639.232 286.582L622.841 288.766L619.451 301.625L627.892 301.346L630.25 296.622V301.268L634.145 301.14L636.406 293.618L637.818 301.625L651.666 301.382L651.1 291.92Z" fill="#2F2E41"/>
<path d="M602.755 473.527C602.755 473.527 608.797 475.968 610.574 476.884C612.352 477.8 619.46 475.968 618.039 481.462C616.617 486.955 610.574 492.143 610.574 492.143C610.574 492.143 607.731 494.89 607.731 496.721C607.731 498.552 600.622 512.591 592.091 511.981C583.561 511.37 584.982 504.046 584.982 504.046L586.76 496.111C586.76 496.111 590.314 482.682 591.025 482.988C591.736 483.293 593.513 485.429 593.513 485.429C593.513 485.429 602.399 482.377 602.755 473.527Z" fill="#D0CDE1"/>
<path d="M691.375 464.386C691.375 464.386 685.332 466.828 683.555 467.743C681.778 468.659 674.669 466.828 676.09 472.321C677.512 477.815 683.555 483.003 683.555 483.003C683.555 483.003 686.398 485.75 686.398 487.581C686.398 489.412 693.507 503.451 702.038 502.84C710.569 502.23 709.147 494.905 709.147 494.905L707.37 486.97C707.37 486.97 703.815 473.542 703.104 473.847C702.393 474.152 700.616 476.289 700.616 476.289C700.616 476.289 691.73 473.237 691.375 464.386Z" fill="#D0CDE1"/>
<path d="M644.525 377.396V374.494H643.774V373.205C643.774 372.908 643.706 372.615 643.573 372.341C643.441 372.067 643.248 371.819 643.004 371.609C642.76 371.399 642.47 371.233 642.151 371.12C641.832 371.006 641.49 370.948 641.145 370.948H632.133C631.436 370.948 630.768 371.186 630.275 371.609C629.782 372.032 629.505 372.606 629.505 373.205V394.806C629.505 395.405 629.782 395.979 630.275 396.402C630.768 396.825 631.436 397.063 632.133 397.063H641.145C641.842 397.063 642.511 396.825 643.004 396.402C643.497 395.979 643.774 395.405 643.774 394.806V381.265H644.525V378.363H643.774V377.396H644.525Z" fill="#D0CDE1"/>
<path d="M637.015 378.686C637.844 378.686 638.517 378.108 638.517 377.396C638.517 376.684 637.844 376.106 637.015 376.106C636.185 376.106 635.513 376.684 635.513 377.396C635.513 378.108 636.185 378.686 637.015 378.686Z" fill="#3F3D56"/>
<path d="M599.372 335.352L591.707 362.408C591.707 362.408 588.726 368.258 595.539 371.914C602.353 375.57 617.682 380.323 617.682 380.323C617.682 380.323 631.309 396.41 633.012 389.829C634.716 383.248 622.792 374.839 622.792 374.839L601.927 363.504L610.018 344.492L599.372 335.352Z" fill="#A0616A"/>
<path d="M654.73 369.354C654.73 369.354 661.117 368.623 660.691 374.839C660.265 381.054 651.749 381.786 651.749 381.786C651.749 381.786 647.916 395.679 642.381 393.12C636.845 390.56 645.361 376.667 645.361 376.667L652.601 371.914L654.73 369.354Z" fill="#A0616A"/>
<path d="M613.637 332.975L620.45 320.91L606.824 324.931C606.824 324.931 599.159 328.222 598.733 335.9C598.307 343.578 608.527 347.6 608.527 347.6C608.527 347.6 610.23 358.569 609.379 360.031C608.527 361.494 609.379 367.343 609.379 367.343C609.379 367.343 625.773 363.504 633.864 368.258C641.955 373.011 648.555 370.268 648.555 370.268C648.555 370.268 648.129 361.128 651.536 359.665C654.943 358.203 657.923 351.256 654.943 346.869C654.943 346.869 661.756 347.6 661.33 342.116C660.904 336.631 657.497 331.878 651.962 329.684C646.426 327.491 645.814 327.14 645.814 327.14L653.665 339.556V342.847C653.665 342.847 639.766 335.23 626.016 334.595C621.53 334.419 617.124 335.664 613.637 338.094L613.637 338.094V332.975Z" fill="#2F2E41"/>
</svg>
