<svg width="919" height="572" viewBox="0 0 919 572" fill="none" xmlns="http://www.w3.org/2000/svg">
<path d="M113.508 168.078C337.883 -37.3608 455.024 -48.7171 716.585 102.605C978.146 253.926 981.705 401.911 753.368 493.104C525.031 584.297 237.6 534.525 144.228 486.204C50.8551 437.882 -110.867 373.516 113.508 168.078Z" fill="#185ADB" fill-opacity="0.07"/>
<path d="M455.717 472.563C406.867 472.563 359.528 458.02 321.767 431.411C284.005 404.803 258.157 367.775 248.627 326.638C239.097 285.501 246.475 242.799 269.502 205.808C292.53 168.818 329.784 139.827 374.915 123.776C420.047 107.725 470.264 105.607 517.011 117.782C563.757 129.958 604.141 155.674 631.281 190.548C658.42 225.423 670.637 267.298 665.849 309.04C661.06 350.781 639.564 389.805 605.022 419.464C585.46 436.351 562.192 449.74 536.564 458.854C510.936 467.969 483.457 472.629 455.717 472.563V472.563ZM455.717 111.156C340.048 111.156 245.945 191.954 245.945 291.269C245.945 390.584 340.048 471.382 455.717 471.382C571.386 471.382 665.49 390.584 665.49 291.269C665.49 191.954 571.386 111.156 455.717 111.156Z" fill="#3F3D56"/>
<path d="M473.503 452.544C469.592 464.955 456.2 472.641 456.2 472.641C456.2 472.641 449.146 460.206 453.056 447.795C456.966 435.385 470.359 427.699 470.359 427.699C470.359 427.699 477.413 440.134 473.503 452.544Z" fill="#21BF73"/>
<path d="M437.932 452.544C441.842 464.955 455.235 472.641 455.235 472.641C455.235 472.641 462.288 460.206 458.378 447.795C454.468 435.385 441.075 427.699 441.075 427.699C441.075 427.699 434.022 440.134 437.932 452.544Z" fill="#21BF73"/>
<path d="M443.677 449.877C454.407 458.845 455.717 472.63 455.717 472.63C455.717 472.63 439.632 471.876 428.903 462.909C418.174 453.941 416.863 440.155 416.863 440.155C416.863 440.155 432.948 440.909 443.677 449.877Z" fill="#3F3D56"/>
<path d="M467.757 449.877C457.028 458.845 455.717 472.63 455.717 472.63C455.717 472.63 471.802 471.876 482.532 462.909C493.261 453.941 494.571 440.155 494.571 440.155C494.571 440.155 478.486 440.909 467.757 449.877Z" fill="#3F3D56"/>
<path d="M437.932 130.678C441.842 118.268 455.235 110.581 455.235 110.581C455.235 110.581 462.288 123.017 458.378 135.427C454.468 147.837 441.075 155.523 441.075 155.523C441.075 155.523 434.022 143.088 437.932 130.678Z" fill="#21BF73"/>
<path d="M473.503 130.678C469.592 118.268 456.2 110.581 456.2 110.581C456.2 110.581 449.146 123.017 453.056 135.427C456.966 147.837 470.359 155.523 470.359 155.523C470.359 155.523 477.413 143.088 473.503 130.678Z" fill="#21BF73"/>
<path d="M467.757 133.345C457.028 124.377 455.717 110.592 455.717 110.592C455.717 110.592 471.802 111.346 482.532 120.313C493.261 129.281 494.571 143.067 494.571 143.067C494.571 143.067 478.486 142.313 467.757 133.345Z" fill="#3F3D56"/>
<path d="M443.677 133.345C454.407 124.377 455.717 110.592 455.717 110.592C455.717 110.592 439.632 111.346 428.903 120.313C418.174 129.281 416.863 143.067 416.863 143.067C416.863 143.067 432.948 142.313 443.677 133.345Z" fill="#3F3D56"/>
<path d="M357.422 67.4861H84.0608V306.161H357.422V67.4861Z" fill="#185ADB"/>
<path d="M347.093 73.5439H103.577H89.7742V86.2416V297.02H103.577V86.2416H347.093V73.5439Z" fill="#3F3D56"/>
<path opacity="0.3" d="M347.093 73.5439H103.577H89.7742V86.2416V297.02H103.577V86.2416H347.093V73.5439Z" fill="black"/>
<path opacity="0.1" d="M307.657 86.2416H296.812H103.577V116.716H296.812V297.02H347.093V86.2416H307.657Z" fill="black"/>
<path d="M74 60V310.564H362.867V60H74ZM347.093 297.02H89.7743V73.544H347.093V297.02Z" fill="#3F3D56"/>
<path d="M276.723 319.802C276.723 319.802 289.785 341.532 297.132 346.438C304.48 351.345 285.295 357.303 285.295 357.303L262.844 327.162L276.723 319.802Z" fill="#A0616A"/>
<path d="M197.533 266.88C197.533 266.88 258.354 280.548 263.661 289.661C268.967 298.773 285.295 320.853 285.295 320.853L261.211 337.326L237.536 306.834L172.226 281.6L197.533 266.88Z" fill="#2F2E41"/>
<path d="M283.254 348.541C283.254 348.541 277.539 344.335 275.906 347.139C274.274 349.943 269.375 364.313 269.375 364.313C269.375 364.313 276.315 369.92 290.601 366.416C290.601 366.416 294.275 363.962 299.99 366.416C305.704 368.869 326.93 363.962 326.114 355.901C325.298 347.84 303.663 348.541 303.663 348.541C303.663 348.541 294.551 339.776 293.393 343.107C292.234 346.438 293.867 346.789 293.867 346.789C293.867 346.789 286.519 353.448 283.254 348.541Z" fill="#2F2E41"/>
<path d="M213.453 341.181L209.371 370.621H229.372C229.372 370.621 227.74 347.84 228.148 345.036C228.556 342.233 213.453 341.181 213.453 341.181Z" fill="#A0616A"/>
<path d="M224.882 276.343C224.882 276.343 235.903 290.362 229.372 291.413C222.841 292.465 217.535 276.343 217.535 276.343H224.882Z" fill="#A0616A"/>
<path d="M141.611 274.941C141.611 274.941 133.447 295.619 165.694 301.227C197.942 306.834 207.738 311.39 207.738 311.39L211.82 347.139L239.985 348.541C239.985 348.541 253.456 294.217 235.903 287.207C218.351 280.198 181.206 272.137 181.206 272.137L141.611 274.941Z" fill="#2F2E41"/>
<path d="M211.82 366.065C211.82 366.065 217.535 363.612 218.351 363.612C218.351 363.612 221.939 356.506 228.513 357.255L242.843 375.178C242.843 375.178 264.477 388.496 249.374 392.001C234.271 395.505 222.433 392.701 222.433 392.701L216.31 388.846C216.31 388.846 217.127 384.991 211.82 385.692C211.82 385.692 200.799 381.837 201.207 379.033C201.615 376.229 210.286 364.024 210.286 364.024L211.82 366.065Z" fill="#2F2E41"/>
<path d="M215.29 206.773C224.307 206.773 231.617 200.496 231.617 192.753C231.617 185.011 224.307 178.734 215.29 178.734C206.272 178.734 198.962 185.011 198.962 192.753C198.962 200.496 206.272 206.773 215.29 206.773Z" fill="#A0616A"/>
<path d="M202.024 188.372C202.024 188.372 187.329 197.485 184.471 197.835C181.614 198.186 197.942 215.359 197.942 215.359C197.942 215.359 205.697 204.494 210.596 203.093C215.494 201.691 202.024 188.372 202.024 188.372Z" fill="#A0616A"/>
<path d="M191.002 199.938C191.002 199.938 184.88 192.929 181.206 192.929C177.532 192.929 144.468 196.083 141.611 219.565C138.754 243.047 140.387 284.053 140.387 284.053C140.387 284.053 137.937 273.889 165.286 278.095C165.286 278.095 197.942 272.137 203.656 272.137C209.371 272.137 211.82 222.018 211.82 222.018L202.526 209.646C202.526 209.646 198.35 216.411 191.002 199.938Z" fill="#D0CDE1"/>
<path d="M205.697 219.215L211.82 222.018L219.168 260.571L229.372 280.548C229.372 280.548 218.351 277.291 217.535 281.198L201.207 260.922L205.697 219.215Z" fill="#D0CDE1"/>
<path d="M211.619 181.256L220.502 182.209C220.332 183.761 220.379 185.684 221.981 186.418C222.734 186.763 223.689 186.745 224.356 187.202C225.961 188.301 224.391 190.664 225.298 192.245L227.896 192.835C228.208 193.337 228.632 193.78 229.145 194.14C229.657 194.5 230.247 194.77 230.882 194.933C231.516 195.096 232.181 195.15 232.84 195.092C233.499 195.033 234.137 194.864 234.719 194.593C236.465 193.693 237.355 191.973 238.14 190.36C239.078 188.433 240.036 186.362 239.566 184.313C239.062 182.111 236.967 180.281 236.871 178.038C236.829 177.035 237.076 175.784 236.091 175.244C235.637 175.061 235.15 174.949 234.65 174.915C232.381 174.508 231.117 172.492 229.425 171.131C225.879 168.281 220.432 168.355 215.583 168.604C214.194 168.608 212.817 168.815 211.509 169.214C210.03 169.85 208.723 170.746 207.671 171.841C205.07 174.223 202.538 176.718 200.823 179.631C199.107 182.545 198.262 185.949 199.194 189.114C199.102 188.81 202.189 186.817 202.573 186.498C203.78 185.494 203.889 185.015 204.542 183.861C206.064 181.171 208.18 180.887 211.619 181.256Z" fill="#2F2E41"/>
<path opacity="0.1" d="M185.492 226.399L186.717 250.933L204.873 269.215L188.349 248.83L185.492 226.399Z" fill="black"/>
<path opacity="0.1" d="M152.837 233.059L167.123 261.447L185.492 274.415L165.898 262.849L152.837 233.059Z" fill="black"/>
<path d="M230.44 256.069L239.073 261.167C239.503 261.458 239.803 261.867 239.923 262.326C240.043 262.784 239.976 263.264 239.732 263.685L238.578 265.731L238.845 265.889L237.533 268.213L237.266 268.055L227.757 284.903C227.659 285.125 227.503 285.324 227.302 285.487C227.102 285.65 226.861 285.772 226.598 285.844C226.335 285.916 226.056 285.937 225.783 285.904C225.509 285.871 225.248 285.786 225.018 285.654L216.905 280.863C216.411 280.529 216.066 280.058 215.928 279.531C215.79 279.004 215.867 278.452 216.147 277.968L228.153 256.696C228.235 256.511 228.365 256.344 228.532 256.208C228.7 256.072 228.901 255.97 229.121 255.91C229.341 255.85 229.573 255.833 229.802 255.86C230.03 255.888 230.248 255.959 230.44 256.069Z" fill="#3F3D56"/>
<path d="M217.042 277.782L226.333 283.269L238.453 261.793L229.162 256.306L217.042 277.782Z" fill="white"/>
<path d="M213.007 273.054C213.007 273.054 229.199 282.688 223.556 285.701C217.914 288.714 206.16 275.342 206.16 275.342L213.007 273.054Z" fill="#A0616A"/>
<path d="M164.878 201.691C164.878 201.691 143.652 206.948 149.775 223.07C151.252 226.959 153.038 231.133 154.897 235.229C160.747 248.113 167.327 260.221 167.327 260.221L185.777 274.544L210.596 280.548L213.453 278.445C213.453 278.445 214.269 271.786 210.596 271.085C206.922 270.384 201.207 267.581 201.207 267.581L186.512 249.005C186.512 249.005 186.104 202.742 164.878 201.691Z" fill="#D0CDE1"/>
<path d="M568.326 477.75H835.179V244.759L568.326 244.759V477.75Z" fill="#FFC947"/>
<path d="M578.409 250.672H816.127H829.601V263.068V468.828H816.127V263.068H578.409V250.672Z" fill="#3F3D56"/>
<path opacity="0.3" d="M578.409 250.672H816.127H829.601V263.068V468.828H816.127V263.068H578.409V250.672Z" fill="black"/>
<path opacity="0.1" d="M616.906 263.068H627.493H816.127V292.816H627.493V468.828H578.409V263.068H616.906Z" fill="black"/>
<path d="M563.011 237.451V482.049H845V237.451H563.011ZM578.409 250.672H829.601V468.828H578.409V250.672Z" fill="#3F3D56"/>
<path d="M727.785 352.769C721.713 343.959 709.699 343.549 709.699 343.549C709.699 343.549 697.993 342.264 690.483 355.681C683.484 368.186 673.823 380.261 688.928 383.189L691.656 375.897L693.346 383.731C695.497 383.864 697.654 383.896 699.809 383.826C715.985 383.378 731.39 383.957 730.894 378.974C730.234 372.348 733.628 361.246 727.785 352.769Z" fill="#2F2E41"/>
<path d="M684.018 423.87L682.74 443.614L720.213 446.904L721.491 426.429L708.715 419.483L684.018 423.87Z" fill="#A0616A"/>
<path d="M784.726 467.196C783.602 457.869 738.989 453.635 728.267 452.751L724.258 450.743L722.981 439.043C722.981 439.043 683.379 436.118 680.398 435.753C677.417 435.387 674.862 440.14 674.862 441.237C674.862 442.03 674.305 447.691 672.068 451.046C667.236 454.38 652.506 464.868 652.506 468.842C652.506 473.595 664.216 533.374 664.216 533.374L665.494 545.805L677.417 547.633L676.565 508.877C676.565 508.877 680.824 486.574 674.862 480.359V477.799C674.862 477.799 692.348 473.888 698.51 469.629C700.296 469.3 705.314 468.488 708.086 469.194C708.466 469.386 708.904 469.583 709.391 469.784C709.453 469.832 709.512 469.884 709.567 469.938L709.615 469.875C717.587 473.079 738.038 477.12 746.401 475.971C752.852 475.126 759.447 476.155 765.138 478.896C760.454 484.015 763.86 498.64 763.86 498.64L764.286 530.083L770.248 536.299H778.339V519.115C778.339 519.115 786.004 477.799 784.726 467.196Z" fill="#2F2E41"/>
<path d="M705.948 376.888C713.709 376.888 720 371.486 720 364.822C720 358.158 713.709 352.757 705.948 352.757C698.187 352.757 691.895 358.158 691.895 364.822C691.895 371.486 698.187 376.888 705.948 376.888Z" fill="#A0616A"/>
<path d="M697.431 372.5C697.431 372.5 699.56 380.544 696.579 381.275C694.221 381.946 691.941 382.803 689.766 383.834L686.36 393.341V402.847L727.665 406.869L728.943 403.578V398.825L724.258 391.513L722.129 389.684C722.129 389.684 712.761 380.909 714.89 372.5H697.431Z" fill="#A0616A"/>
<path d="M734.265 401.567C734.265 401.567 735.543 414.364 734.265 420.214C732.988 426.064 733.414 434.839 733.414 434.839L724.045 433.376V413.633L726.175 403.03L734.265 401.567Z" fill="#A0616A"/>
<path d="M711.17 351.052C715.967 351.052 719.856 347.713 719.856 343.594C719.856 339.474 715.967 336.135 711.17 336.135C706.372 336.135 702.483 339.474 702.483 343.594C702.483 347.713 706.372 351.052 711.17 351.052Z" fill="#2F2E41"/>
<path d="M701.569 341.631C701.569 339.789 702.363 338.012 703.798 336.643C705.233 335.273 707.208 334.408 709.341 334.214C709.037 334.187 708.732 334.173 708.427 334.173C706.123 334.173 703.913 334.958 702.284 336.357C700.655 337.756 699.74 339.653 699.74 341.631C699.74 343.609 700.655 345.506 702.284 346.905C703.913 348.303 706.123 349.089 708.427 349.089C708.732 349.089 709.037 349.075 709.341 349.047C707.208 348.853 705.233 347.988 703.798 346.619C702.363 345.25 701.569 343.473 701.569 341.631V341.631Z" fill="#2F2E41"/>
<path d="M725.1 351.92L713.232 346.582L696.841 348.766L693.451 361.625L701.892 361.346L704.25 356.622V361.268L708.145 361.14L710.406 353.618L711.818 361.625L725.666 361.382L725.1 351.92Z" fill="#2F2E41"/>
<path d="M676.755 533.527C676.755 533.527 682.797 535.968 684.574 536.884C686.352 537.8 693.46 535.968 692.039 541.462C690.617 546.955 684.574 552.143 684.574 552.143C684.574 552.143 681.731 554.89 681.731 556.721C681.731 558.552 674.622 572.591 666.091 571.981C657.561 571.37 658.982 564.046 658.982 564.046L660.76 556.111C660.76 556.111 664.314 542.682 665.025 542.988C665.736 543.293 667.513 545.429 667.513 545.429C667.513 545.429 676.399 542.377 676.755 533.527Z" fill="#D0CDE1"/>
<path d="M765.375 524.386C765.375 524.386 759.332 526.828 757.555 527.743C755.778 528.659 748.669 526.828 750.09 532.321C751.512 537.815 757.555 543.003 757.555 543.003C757.555 543.003 760.398 545.75 760.398 547.581C760.398 549.412 767.507 563.451 776.038 562.84C784.569 562.23 783.147 554.905 783.147 554.905L781.37 546.97C781.37 546.97 777.815 533.542 777.104 533.847C776.393 534.152 774.616 536.289 774.616 536.289C774.616 536.289 765.73 533.237 765.375 524.386Z" fill="#D0CDE1"/>
<path d="M718.525 437.396V434.494H717.774V433.205C717.774 432.908 717.706 432.615 717.573 432.341C717.441 432.067 717.248 431.819 717.004 431.609C716.76 431.399 716.47 431.233 716.151 431.12C715.832 431.006 715.49 430.948 715.145 430.948H706.133C705.436 430.948 704.768 431.186 704.275 431.609C703.782 432.032 703.505 432.606 703.505 433.205V454.806C703.505 455.405 703.782 455.979 704.275 456.402C704.768 456.825 705.436 457.063 706.133 457.063H715.145C715.842 457.063 716.511 456.825 717.004 456.402C717.497 455.979 717.774 455.405 717.774 454.806V441.265H718.525V438.363H717.774V437.396H718.525Z" fill="#D0CDE1"/>
<path d="M711.015 438.686C711.844 438.686 712.517 438.108 712.517 437.396C712.517 436.684 711.844 436.106 711.015 436.106C710.185 436.106 709.513 436.684 709.513 437.396C709.513 438.108 710.185 438.686 711.015 438.686Z" fill="#3F3D56"/>
<path d="M673.372 395.352L665.707 422.408C665.707 422.408 662.726 428.258 669.539 431.914C676.353 435.57 691.682 440.323 691.682 440.323C691.682 440.323 705.309 456.41 707.012 449.829C708.716 443.248 696.792 434.839 696.792 434.839L675.927 423.504L684.018 404.492L673.372 395.352Z" fill="#A0616A"/>
<path d="M728.73 429.354C728.73 429.354 735.117 428.623 734.691 434.839C734.265 441.054 725.749 441.786 725.749 441.786C725.749 441.786 721.916 455.679 716.381 453.12C710.845 450.56 719.361 436.667 719.361 436.667L726.601 431.914L728.73 429.354Z" fill="#A0616A"/>
<path d="M687.637 392.975L694.45 380.91L680.824 384.931C680.824 384.931 673.159 388.222 672.733 395.9C672.307 403.578 682.527 407.6 682.527 407.6C682.527 407.6 684.23 418.569 683.379 420.031C682.527 421.494 683.379 427.343 683.379 427.343C683.379 427.343 699.773 423.504 707.864 428.258C715.955 433.011 722.555 430.268 722.555 430.268C722.555 430.268 722.129 421.128 725.536 419.665C728.943 418.203 731.923 411.256 728.943 406.869C728.943 406.869 735.756 407.6 735.33 402.116C734.904 396.631 731.497 391.878 725.962 389.684C720.426 387.491 719.814 387.14 719.814 387.14L727.665 399.556V402.847C727.665 402.847 713.766 395.23 700.016 394.595C695.53 394.419 691.124 395.664 687.637 398.094L687.637 398.094V392.975Z" fill="#2F2E41"/>
</svg>
